<svg xmlns="http://www.w3.org/2000/svg" width="132.555" height="132.555" viewBox="0 0 132.555 132.555"><defs><style>.a{fill:#ffb400;}</style></defs><g transform="translate(-194 -1303)"><circle class="a" cx="56" cy="56" r="56" transform="translate(204 1313)"/><path d="M66.17.563c37.361,0,66.384,28.836,66.384,66.277,0,39.339-31.669,66.277-66.384,66.277C30.226,133.117,0,103.506,0,66.84,0,31.323,27.981.563,66.17.563Zm-51.258,48.4A52.069,52.069,0,0,0,11.946,66.84c0,29.638,24.613,54.091,54.438,54.091,32.711,0,47.356-27.206,47.7-27.82L89.127,81.993C87.069,91.908,78.116,96.157,70.9,96.8V106.98H63.2V96.772A30.714,30.714,0,0,1,43.08,88.834l9.113-9.22c8.472,7.857,23.09,8.5,23.09-.588a5.132,5.132,0,0,0-1.764-4.035c-3.795-1.6-.481-.027-58.607-26.03ZM66.384,12.4c-10.262,0-30.039,2.325-45.566,24.854L46.154,48.614c2.672-8.365,10.8-11.465,17.05-11.839V26.592h7.7V36.775A29.488,29.488,0,0,1,87.47,42.921l-8.632,8.873C67.427,43.8,56.523,49.656,60.131,54.76,74.4,61.2,71.836,60.052,84.985,65.878l33.967,15.153a61.677,61.677,0,0,0,1.657-14.191q0-22.85-15.848-38.457Q89.007,12.388,66.384,12.4Z" transform="translate(194 1302.438)"/></g></svg>