<svg xmlns="http://www.w3.org/2000/svg" width="141.723" height="99.204" viewBox="0 0 141.723 99.204"><defs><style>.a{fill:#ffb500;}</style></defs><g transform="translate(-193.995 -1532)"><path class="a" d="M2190.484,1548.561l129.5-7.616v72.486l-131.128,10.353Z" transform="translate(-1990)"/><path d="M137.549,7.224A65.575,65.575,0,0,0,111.771,2.25c-27.275,0-54.547,13.8-81.821,13.8A67.186,67.186,0,0,1,9.433,13.016a7.571,7.571,0,0,0-2.292-.359A7.046,7.046,0,0,0,0,19.7V89.955a7.042,7.042,0,0,0,4.172,6.524,65.538,65.538,0,0,0,25.778,4.976c27.275,0,54.549-13.807,81.824-13.807a67.186,67.186,0,0,1,20.516,3.038,7.572,7.572,0,0,0,2.292.359A7.046,7.046,0,0,0,141.723,84V13.749A7.051,7.051,0,0,0,137.549,7.224ZM10.629,24.443A77.061,77.061,0,0,0,24.518,26.42,14.189,14.189,0,0,1,10.629,37.833Zm0,63.11V76.972a14.167,14.167,0,0,1,14.108,13.6A53.5,53.5,0,0,1,10.629,87.552ZM70.86,73.11c-9.785,0-17.715-9.52-17.715-21.258S61.077,30.594,70.86,30.594s17.715,9.517,17.715,21.258S80.641,73.11,70.86,73.11Zm60.231,6.152a76.136,76.136,0,0,0-12.029-1.869A14.142,14.142,0,0,1,131.091,66.48Zm0-52.284a14.144,14.144,0,0,1-12.358-13.63,53.23,53.23,0,0,1,12.358,2.8Z" transform="translate(193.995 1529.75)"/></g></svg>