<svg xmlns="http://www.w3.org/2000/svg" width="37.227" height="37.227" viewBox="0 0 37.227 37.227"><defs><style>.a{fill:#fff;}</style></defs><path class="a" d="M34.568,2.25H2.651A2.671,2.671,0,0,0,0,4.934V36.793a2.671,2.671,0,0,0,2.651,2.684H34.568a2.678,2.678,0,0,0,2.659-2.684V4.934A2.678,2.678,0,0,0,34.568,2.25ZM11.251,34.159H5.734V16.393h5.526V34.159ZM8.492,13.966a3.2,3.2,0,1,1,3.2-3.2A3.2,3.2,0,0,1,8.492,13.966ZM31.933,34.159H26.416V25.517c0-2.061-.042-4.711-2.867-4.711-2.875,0-3.315,2.244-3.315,4.562v8.791H14.716V16.393h5.293v2.426h.075a5.811,5.811,0,0,1,5.227-2.867c5.584,0,6.623,3.681,6.623,8.467Z" transform="translate(0 -2.25)"/></svg>