<svg xmlns="http://www.w3.org/2000/svg" width="37.227" height="37.227" viewBox="0 0 37.227 37.227"><defs><style>.a{fill:#fff;}</style></defs><path class="a" d="M18.613,0c-5.057,0-5.688.023-7.673.112A13.725,13.725,0,0,0,6.422.977a9.115,9.115,0,0,0-3.3,2.147,9.082,9.082,0,0,0-2.147,3.3A13.685,13.685,0,0,0,.112,10.94C.019,12.925,0,13.557,0,18.613S.023,24.3.112,26.287a13.734,13.734,0,0,0,.866,4.518,9.128,9.128,0,0,0,2.147,3.3,9.1,9.1,0,0,0,3.3,2.147,13.742,13.742,0,0,0,4.518.866c1.985.093,2.617.112,7.673.112s5.688-.023,7.673-.112a13.774,13.774,0,0,0,4.518-.866,9.513,9.513,0,0,0,5.444-5.444,13.733,13.733,0,0,0,.866-4.518c.093-1.985.112-2.617.112-7.673s-.023-5.688-.112-7.673a13.765,13.765,0,0,0-.866-4.518,9.135,9.135,0,0,0-2.147-3.3,9.069,9.069,0,0,0-3.3-2.147A13.693,13.693,0,0,0,26.287.112C24.3.019,23.67,0,18.613,0Zm0,3.35c4.968,0,5.561.025,7.523.11a10.255,10.255,0,0,1,3.454.644,6.125,6.125,0,0,1,3.533,3.532,10.277,10.277,0,0,1,.641,3.454c.088,1.964.109,2.553.109,7.523s-.023,5.561-.115,7.523a10.475,10.475,0,0,1-.653,3.454,5.91,5.91,0,0,1-1.394,2.144,5.807,5.807,0,0,1-2.141,1.39,10.352,10.352,0,0,1-3.467.641c-1.976.088-2.558.109-7.537.109S13,33.85,11.03,33.758a10.554,10.554,0,0,1-3.468-.653,5.764,5.764,0,0,1-2.139-1.394,5.652,5.652,0,0,1-1.4-2.141A10.563,10.563,0,0,1,3.375,26.1c-.07-1.954-.095-2.558-.095-7.514s.025-5.562.095-7.54a10.551,10.551,0,0,1,.651-3.465,5.518,5.518,0,0,1,1.4-2.142A5.505,5.505,0,0,1,7.562,4.05,10.3,10.3,0,0,1,11.007,3.4c1.978-.07,2.559-.093,7.537-.093l.07.047Zm0,5.7a9.558,9.558,0,1,0,9.558,9.558A9.557,9.557,0,0,0,18.613,9.055Zm0,15.762a6.2,6.2,0,1,1,6.2-6.2A6.2,6.2,0,0,1,18.613,24.818ZM30.783,8.678A2.234,2.234,0,1,1,28.55,6.446,2.235,2.235,0,0,1,30.783,8.678Z"/></svg>